<svg width="218" height="63" viewBox="0 0 218 63" fill="none" xmlns="http://www.w3.org/2000/svg">
<rect width="63" height="63" rx="14" fill="white"/>
<path d="M29.0833 13.41C24.2454 13.536 19.6479 15.546 16.2701 19.0119C12.8924 22.4777 11.0014 27.1255 11 31.965V32.0317C10.9988 36.8707 12.8874 41.5188 16.2635 44.9854C19.6396 48.4521 24.236 50.4632 29.0733 50.59H29.545C31.8494 50.596 34.1344 50.1674 36.28 49.3267C36.4052 49.2797 36.513 49.1956 36.5892 49.0858C36.6655 48.9759 36.7064 48.8454 36.7067 48.7117V39.4384C36.7054 39.384 36.6914 39.3306 36.6659 39.2826C36.6404 39.2345 36.604 39.1931 36.5597 39.1615C36.5154 39.13 36.4643 39.1092 36.4105 39.1009C36.3568 39.0925 36.3018 39.0968 36.25 39.1134C34.2467 39.9284 32.5583 40.7084 29.65 40.7084C27.3426 40.7084 25.1297 39.7918 23.4982 38.1602C21.8666 36.5286 20.95 34.3158 20.95 32.0084C20.95 29.701 21.8666 27.4881 23.4982 25.8565C25.1297 24.225 27.3426 23.3084 29.65 23.3084C32.5583 23.3084 34.2467 24.0867 36.25 24.9C36.3015 24.9166 36.3562 24.9209 36.4097 24.9127C36.4633 24.9046 36.5142 24.8841 36.5584 24.8529C36.6027 24.8217 36.6391 24.7807 36.6648 24.7331C36.6905 24.6854 36.7049 24.6325 36.7067 24.5784V15.2984C36.7068 15.1644 36.666 15.0335 36.5897 14.9234C36.5135 14.8132 36.4054 14.7289 36.28 14.6817C34.137 13.839 31.8544 13.4076 29.5517 13.41H29.0833ZM38.855 16.4434V47.56C38.856 47.6326 38.8768 47.7035 38.9153 47.765C38.9537 47.8265 39.0083 47.8763 39.0731 47.909C39.1379 47.9416 39.2104 47.9559 39.2827 47.9502C39.3551 47.9445 39.4244 47.9191 39.4833 47.8767C45.1717 44.34 51 34.2767 51 32.01C51 29.7434 45.1717 19.6834 39.4833 16.14C39.4254 16.0982 39.3572 16.0728 39.286 16.0666C39.2147 16.0603 39.1432 16.0734 39.0788 16.1045C39.0144 16.1356 38.9596 16.1835 38.9202 16.2431C38.8808 16.3028 38.8583 16.372 38.855 16.4434Z" fill="#1F6105"/>
<path d="M92.52 19.12C94.28 19.12 95.72 19.3867 96.84 19.92C97.9867 20.4267 99 21.0267 99.88 21.72C100.413 22.12 100.813 22.1733 101.08 21.88C101.373 21.56 101.573 20.8267 101.68 19.68H102.6C102.547 20.6933 102.507 21.9333 102.48 23.4C102.453 24.8667 102.44 26.8 102.44 29.2H101.52C101.36 28 101.187 27 101 26.2C100.813 25.3733 100.547 24.6667 100.2 24.08C99.88 23.4933 99.4267 22.9333 98.84 22.4C98.12 21.6 97.2533 21.0133 96.24 20.64C95.2533 20.24 94.2133 20.04 93.12 20.04C91.7333 20.04 90.52 20.4133 89.48 21.16C88.4667 21.88 87.6133 22.88 86.92 24.16C86.2533 25.4133 85.7467 26.88 85.4 28.56C85.08 30.24 84.92 32.0267 84.92 33.92C84.92 35.8667 85.0933 37.68 85.44 39.36C85.8133 41.0133 86.3467 42.4667 87.04 43.72C87.76 44.9467 88.64 45.9067 89.68 46.6C90.7467 47.2933 91.9733 47.64 93.36 47.64C94.3467 47.64 95.36 47.4533 96.4 47.08C97.44 46.7067 98.2933 46.1333 98.96 45.36C99.84 44.56 100.44 43.6133 100.76 42.52C101.08 41.4 101.333 39.92 101.52 38.08H102.44C102.44 40.5867 102.453 42.6133 102.48 44.16C102.507 45.68 102.547 46.96 102.6 48H101.68C101.573 46.8533 101.387 46.1333 101.12 45.84C100.88 45.5467 100.467 45.5867 99.88 45.96C98.8933 46.6533 97.84 47.2667 96.72 47.8C95.6267 48.3067 94.2133 48.56 92.48 48.56C89.76 48.56 87.3733 47.9867 85.32 46.84C83.2667 45.6933 81.6667 44.04 80.52 41.88C79.4 39.72 78.84 37.12 78.84 34.08C78.84 31.0933 79.4267 28.48 80.6 26.24C81.7733 24 83.3867 22.2533 85.44 21C87.4933 19.7467 89.8533 19.12 92.52 19.12ZM119.128 19.56L128.848 44.64C129.248 45.6 129.674 46.2667 130.128 46.64C130.608 46.9867 131.048 47.1733 131.448 47.2V48C130.754 47.9467 129.914 47.92 128.928 47.92C127.968 47.8933 126.981 47.88 125.968 47.88C124.794 47.88 123.701 47.8933 122.688 47.92C121.674 47.92 120.848 47.9467 120.208 48V47.2C121.568 47.1467 122.434 46.92 122.808 46.52C123.181 46.0933 123.101 45.2 122.568 43.84L115.528 24.84L116.248 23.96L109.848 40.56C109.341 41.8933 109.034 42.9867 108.928 43.84C108.821 44.6933 108.888 45.36 109.128 45.84C109.368 46.32 109.768 46.6667 110.328 46.88C110.888 47.0667 111.581 47.1733 112.408 47.2V48C111.554 47.9467 110.728 47.92 109.928 47.92C109.128 47.8933 108.328 47.88 107.528 47.88C106.941 47.88 106.381 47.8933 105.848 47.92C105.341 47.92 104.888 47.9467 104.488 48V47.2C105.074 47.0667 105.648 46.72 106.208 46.16C106.794 45.6 107.354 44.6267 107.888 43.24L117.048 19.56C117.368 19.5867 117.714 19.6 118.088 19.6C118.461 19.6 118.808 19.5867 119.128 19.56ZM122.608 36.48V37.28H110.688L111.088 36.48H122.608ZM153.798 19.68C153.691 20.9067 153.611 22.1067 153.558 23.28C153.531 24.4267 153.518 25.3067 153.518 25.92C153.518 26.5333 153.531 27.1067 153.558 27.64C153.584 28.1733 153.611 28.64 153.638 29.04H152.718C152.344 26.9067 151.891 25.24 151.358 24.04C150.824 22.8133 150.118 21.9333 149.238 21.4C148.384 20.8667 147.251 20.6 145.838 20.6H144.558V43.4C144.558 44.4933 144.651 45.3067 144.838 45.84C145.051 46.3733 145.464 46.7333 146.078 46.92C146.691 47.08 147.584 47.1733 148.758 47.2V48C147.958 47.9467 146.918 47.92 145.638 47.92C144.358 47.8933 143.051 47.88 141.718 47.88C140.331 47.88 139.024 47.8933 137.798 47.92C136.598 47.92 135.624 47.9467 134.878 48V47.2C136.024 47.1733 136.904 47.08 137.518 46.92C138.131 46.7333 138.544 46.3733 138.758 45.84C138.971 45.3067 139.078 44.4933 139.078 43.4V20.6H137.758C136.371 20.6 135.238 20.8667 134.358 21.4C133.478 21.9333 132.771 22.8133 132.238 24.04C131.704 25.24 131.264 26.9067 130.918 29.04H129.998C130.051 28.64 130.078 28.1733 130.078 27.64C130.104 27.1067 130.118 26.5333 130.118 25.92C130.118 25.3067 130.091 24.4267 130.038 23.28C130.011 22.1067 129.944 20.9067 129.838 19.68C131.011 19.7067 132.304 19.7333 133.718 19.76C135.131 19.7867 136.544 19.8 137.958 19.8C139.371 19.8 140.664 19.8 141.838 19.8C142.984 19.8 144.264 19.8 145.678 19.8C147.091 19.8 148.504 19.7867 149.918 19.76C151.331 19.7333 152.624 19.7067 153.798 19.68ZM164.292 26.76C166.639 26.76 168.479 27.4667 169.812 28.88C171.145 30.2933 171.812 32.5467 171.812 35.64H158.332L158.292 34.88H167.172C167.225 33.5733 167.145 32.3733 166.932 31.28C166.719 30.16 166.372 29.2667 165.892 28.6C165.439 27.9333 164.839 27.6 164.092 27.6C163.079 27.6 162.199 28.2 161.452 29.4C160.705 30.5733 160.239 32.5067 160.052 35.2L160.212 35.44C160.159 35.7867 160.119 36.16 160.092 36.56C160.092 36.96 160.092 37.36 160.092 37.76C160.092 39.6 160.359 41.12 160.892 42.32C161.425 43.52 162.119 44.4 162.972 44.96C163.825 45.52 164.705 45.8 165.612 45.8C166.225 45.8 166.852 45.7067 167.492 45.52C168.132 45.3333 168.759 44.9867 169.372 44.48C169.985 43.9733 170.545 43.2533 171.052 42.32L171.812 42.64C171.519 43.5733 171.025 44.5067 170.332 45.44C169.665 46.3467 168.799 47.0933 167.732 47.68C166.665 48.2667 165.412 48.56 163.972 48.56C162.159 48.56 160.559 48.16 159.172 47.36C157.785 46.56 156.705 45.3733 155.932 43.8C155.159 42.2 154.772 40.2533 154.772 37.96C154.772 35.5333 155.172 33.4933 155.972 31.84C156.799 30.1867 157.932 28.9333 159.372 28.08C160.812 27.2 162.452 26.76 164.292 26.76ZM184.647 26.76C185.634 26.76 186.541 26.88 187.367 27.12C188.221 27.3333 188.954 27.64 189.567 28.04C190.207 28.44 190.714 28.9467 191.087 29.56C191.461 30.1467 191.647 30.8 191.647 31.52C191.647 32.4 191.381 33.1067 190.847 33.64C190.314 34.1733 189.647 34.44 188.847 34.44C188.021 34.44 187.341 34.2 186.807 33.72C186.301 33.24 186.047 32.6 186.047 31.8C186.047 31.0267 186.274 30.3867 186.727 29.88C187.181 29.3733 187.727 29.04 188.367 28.88C188.127 28.5333 187.754 28.2533 187.247 28.04C186.741 27.8 186.181 27.68 185.567 27.68C184.767 27.68 184.047 27.8933 183.407 28.32C182.767 28.72 182.207 29.3333 181.727 30.16C181.274 30.96 180.914 31.96 180.647 33.16C180.407 34.3333 180.287 35.6933 180.287 37.24C180.287 39.4 180.541 41.1067 181.047 42.36C181.581 43.6133 182.261 44.5067 183.087 45.04C183.914 45.5467 184.794 45.8 185.727 45.8C186.287 45.8 186.887 45.6933 187.527 45.48C188.167 45.2667 188.794 44.9067 189.407 44.4C190.047 43.8933 190.621 43.1733 191.127 42.24L191.887 42.52C191.594 43.4533 191.114 44.3867 190.447 45.32C189.807 46.2533 188.967 47.0267 187.927 47.64C186.887 48.2533 185.621 48.56 184.127 48.56C182.421 48.56 180.874 48.1733 179.487 47.4C178.101 46.6 176.994 45.4 176.167 43.8C175.367 42.2 174.967 40.2133 174.967 37.84C174.967 35.4933 175.381 33.5067 176.207 31.88C177.034 30.2267 178.181 28.96 179.647 28.08C181.141 27.2 182.807 26.76 184.647 26.76ZM201.614 16.68V30.84C202.28 29.3467 203.2 28.2933 204.374 27.68C205.574 27.0667 206.867 26.76 208.254 26.76C209.347 26.76 210.24 26.9067 210.934 27.2C211.627 27.4933 212.187 27.8667 212.614 28.32C213.067 28.8267 213.387 29.48 213.574 30.28C213.787 31.08 213.894 32.16 213.894 33.52V44.28C213.894 45.4 214.094 46.16 214.494 46.56C214.92 46.96 215.627 47.16 216.614 47.16V48C216.134 47.9733 215.4 47.9467 214.414 47.92C213.427 47.8667 212.454 47.84 211.494 47.84C210.534 47.84 209.587 47.8667 208.654 47.92C207.72 47.9467 207.014 47.9733 206.534 48V47.16C207.387 47.16 207.987 46.96 208.334 46.56C208.68 46.16 208.854 45.4 208.854 44.28V32.16C208.854 31.44 208.787 30.8 208.654 30.24C208.52 29.6533 208.254 29.2 207.854 28.88C207.48 28.5333 206.907 28.36 206.134 28.36C205.28 28.36 204.507 28.6 203.814 29.08C203.147 29.5333 202.614 30.1867 202.214 31.04C201.814 31.8667 201.614 32.8133 201.614 33.88V44.28C201.614 45.4 201.787 46.16 202.134 46.56C202.507 46.96 203.107 47.16 203.934 47.16V48C203.48 47.9733 202.8 47.9467 201.894 47.92C201.014 47.8667 200.094 47.84 199.134 47.84C198.174 47.84 197.174 47.8667 196.134 47.92C195.12 47.9467 194.36 47.9733 193.854 48V47.16C194.84 47.16 195.534 46.96 195.934 46.56C196.36 46.16 196.574 45.4 196.574 44.28V21.48C196.574 20.28 196.374 19.4 195.974 18.84C195.6 18.2533 194.894 17.96 193.854 17.96V17.12C194.707 17.2 195.534 17.24 196.334 17.24C197.347 17.24 198.294 17.2 199.174 17.12C200.054 17.0133 200.867 16.8667 201.614 16.68Z" fill="#1F6105"/>
</svg>
