<svg width="60" height="60" viewBox="0 0 60 60" fill="none" xmlns="http://www.w3.org/2000/svg">
<path d="M25.68 9.26251C25.941 9.68011 26.1172 10.145 26.1985 10.6307C26.2798 11.1164 26.2647 11.6134 26.154 12.0932C26.0432 12.5731 25.8391 13.0264 25.5531 13.4274C25.2672 13.8283 24.9051 14.169 24.4875 14.43C19.9234 17.2729 16.2975 21.3969 14.0625 26.2875C16.3196 26.0988 18.5811 26.5957 20.5511 27.7133C22.5211 28.8309 24.1079 30.5171 25.1039 32.5513C26.0999 34.5855 26.4587 36.873 26.1333 39.1145C25.808 41.3559 24.8136 43.447 23.2803 45.1141C21.7471 46.7811 19.7463 47.9466 17.5398 48.4579C15.3334 48.9693 13.0239 48.8027 10.9137 47.98C8.8034 47.1573 6.99061 45.7168 5.71246 43.8469C4.43431 41.9771 3.75033 39.765 3.75 37.5V37.3988C3.75408 37.1085 3.76658 36.8183 3.7875 36.5288C3.82125 35.9663 3.88875 35.1788 4.02 34.2113C4.2825 32.2875 4.79625 29.6363 5.835 26.6588C7.905 20.6963 12.0975 13.3275 20.5125 8.07001C20.9301 7.80901 21.395 7.63281 21.8807 7.55149C22.3664 7.47016 22.8634 7.4853 23.3432 7.59603C23.8231 7.70677 24.2764 7.91093 24.6774 8.19686C25.0783 8.4828 25.419 8.84491 25.68 9.26251ZM51.93 9.26251C52.191 9.68011 52.3672 10.145 52.4485 10.6307C52.5299 11.1164 52.5147 11.6134 52.404 12.0932C52.2932 12.5731 52.0891 13.0264 51.8031 13.4274C51.5172 13.8283 51.1551 14.169 50.7375 14.43C46.1734 17.2729 42.5475 21.3969 40.3125 26.2875C42.5696 26.0988 44.8311 26.5957 46.8011 27.7133C48.7711 28.8309 50.3579 30.5171 51.3539 32.5513C52.3499 34.5855 52.7087 36.873 52.3833 39.1145C52.0579 41.3559 51.0636 43.447 49.5303 45.1141C47.9971 46.7811 45.9963 47.9466 43.7898 48.4579C41.5834 48.9693 39.2739 48.8027 37.1637 47.98C35.0534 47.1573 33.2406 45.7168 31.9625 43.8469C30.6843 41.9771 30.0003 39.765 30 37.5V37.3988C30.0041 37.1085 30.0166 36.8183 30.0375 36.5288C30.0713 35.9663 30.1387 35.1788 30.27 34.2113C30.5325 32.2875 31.0462 29.6363 32.085 26.6588C34.155 20.6963 38.3475 13.3275 46.7625 8.07001C47.1801 7.80901 47.645 7.63281 48.1307 7.55149C48.6164 7.47016 49.1134 7.4853 49.5932 7.59603C50.0731 7.70677 50.5264 7.91093 50.9274 8.19686C51.3283 8.4828 51.669 8.84491 51.93 9.26251Z" fill="black" fill-opacity="0.5"/>
</svg>
